<svg xmlns="http://www.w3.org/2000/svg" version="1.1" xmlns:xlink="http://www.w3.org/1999/xlink" xmlns:svgjs="http://svgjs.dev/svgjs" width="100%" height="100%" viewBox="0 0 1000 600"><rect width="1000" height="600" x="0" y="0" fill="#295f2d"/><g><circle r="166.66666666666666" cx="344.76186625162757" cy="366.98409036470946" fill="#ffe67c" transform="matrix(0.7018719097473147,0,0,0.7018719097473147,0,42.42418523657177)"/><path d="M414.0192104750427 301.68848894509665L401.22541367001577 305.2503982828599L348.8508079994364 386.26566271014735L355.2477064019499 368.8922681851391L355.2477064019499 393.1714053037699Q355.2477064019499 402.6213688529376 355.35674444290186 409.2726893510056Q355.50212849750443 415.9240098490736 355.61116653845636 419.8857253369939Q355.75655059305893 423.8474408249142 356.01097268861344 425.88281758935034Q356.26539478416794 427.9181943537865 356.26539478416794 428.68146064045004L356.26539478416794 428.68146064045004L374.1476335002853 432.02529389630934L373.6387893091762 441.98410163658605L315.37612942719244 441.98410163658605L314.6128631405289 432.02529389630934L332.4951018566462 428.68146064045004Q332.7495239522007 427.9181943537865 332.8949080068033 425.88281758935034Q333.0039460477552 423.8474408249142 333.2583681433097 419.8857253369939Q333.5127902388642 415.9240098490736 333.6581742934668 409.2726893510056Q333.7672123344188 402.6213688529376 333.7672123344188 393.1714053037699L333.7672123344188 393.1714053037699L333.7672123344188 368.8922681851391L338.8920002591597 386.26566271014735L288.298349257462 305.2503982828599L275.50455245243495 301.68848894509665L276.013396643544 291.9841033003745L328.933192518883 291.9841033003745L329.6964588055465 301.68848894509665L314.10401894941987 305.2503982828599L351.6494510505361 365.5847809429305L348.08754171277286 365.5847809429305L384.106441240562 305.2503982828599L366.22420252444465 301.68848894509665L366.9874688111082 291.9841033003745L413.5103662839337 291.9841033003745L414.0192104750427 301.68848894509665Z " fill="#295f2d" transform="matrix(0.7018719097473147,0,0,0.7018719097473147,0,42.42418523657177)"/><path d="M710.5742815719269 322.9808612584179L699.8773611207295 325.95898115676266L656.0868430236388 393.6960143548299L661.4353032492376 379.1700826057603L661.4353032492376 399.46992028019224Q661.4353032492376 407.37105470437234 661.5264701849013 412.93223777985304Q661.6480260991194 418.4934208553336 661.7391930347829 421.80581951777833Q661.8607489490012 425.11821818022304 662.0734717988829 426.8200009792773Q662.2861946487648 428.5217837783315 662.2861946487648 429.15995232797684L662.2861946487648 429.15995232797684L677.2375720975979 431.9557383549943L676.8121263978343 440.282318478938L628.0985937749084 440.282318478938L627.4604252252631 431.9557383549943L642.4118026740963 429.15995232797684Q642.624525523978 428.5217837783315 642.7460814381963 426.8200009792773Q642.8372483738598 425.11821818022304 643.0499712237416 421.80581951777833Q643.2626940736234 418.4934208553336 643.3842499878416 412.93223777985304Q643.4754169235051 407.37105470437234 643.4754169235051 399.46992028019224L643.4754169235051 399.46992028019224L643.4754169235051 379.1700826057603L647.7602628996951 393.6960143548299L605.4588047517769 325.95898115676266L594.7618843005793 322.9808612584179L595.1873300003429 314.86700398435596L639.4336827757514 314.86700398435596L640.0718513253968 322.9808612584179L627.0349795254996 325.95898115676266L658.4267943723383 376.4046855572973L655.4486744739935 376.4046855572973L685.5641522215416 325.95898115676266L670.6127747727083 322.9808612584179L671.2509433223537 314.86700398435596L710.1488358721634 314.86700398435596L710.5742815719269 322.9808612584179ZM738.9879765204208 441.9841012779922L738.9879765204208 441.9841012779922Q730.4486735465954 441.9841012779922 723.823876221706 438.58053567988384Q717.1990788968166 435.1465811032209 713.4612345346083 429.79812087762207Q709.7233901724 424.4800496305778 709.7233901724 418.70614370521537L709.7233901724 418.70614370521537Q709.7233901724 411.4431778306806 714.4336818483536 406.7328861547271Q719.1135845457524 402.0225944787735 729.81050499695 398.61902888066516L729.81050499695 398.61902888066516L762.2963230717522 387.7093855795857L762.2963230717522 376.83013125706077Q762.2963230717522 371.48167103146193 759.0750913449712 367.1056581196084Q755.8842485967444 362.72964520775474 750.5357883711457 360.1465820306189Q745.1873281455468 357.59390783203764 738.5625308206573 357.59390783203764L738.5625308206573 357.59390783203764Q733.2140705950586 357.59390783203764 731.2995649461226 359.8426922450735Q729.3850592971866 362.0914766581094 728.9596135974231 368.7162739829989L728.9596135974231 368.7162739829989L728.5341678976596 377.68102265658786Q720.8153673448065 379.382805455642 715.4972960977624 377.13402104260615Q710.1488358721634 374.8852366295703 710.1488358721634 369.77988823240776L710.1488358721634 369.77988823240776Q710.1488358721634 366.1332108058631 713.2485116847264 362.516922357873Q716.3481874972894 358.87024493132833 721.4839248730065 355.5578462688836Q726.589273270169 352.2454476064388 732.5759020454133 349.9054962577394Q738.5625308206573 347.5351559304853 744.3364367460198 346.6842645309582L744.3364367460198 346.6842645309582Q760.13870559438 346.6842645309582 769.6504558819507 355.0412336334564Q779.1622061695213 363.3678137574001 779.3749290194031 376.83013125706077L779.3749290194031 376.83013125706077L778.9494833196396 412.7195149299712Q778.9494833196396 416.79163805627945 779.253373105185 420.6206493541513Q779.5876518692847 424.4800496305778 780.2258204189301 426.3945552795137L780.2258204189301 426.3945552795137L793.9008607684726 428.947229478095L793.9008607684726 435.5720268029845L783.4470521457114 439.4314270794109Q780.4385432688119 440.49504132881975 777.8858690702306 441.2547657926832Q775.3028058930948 441.9841012779922 773.6010230940407 441.9841012779922L773.6010230940407 441.9841012779922Q766.9762257691513 441.9841012779922 765.0617201202152 434.50841255357557L765.0617201202152 434.50841255357557L762.7217687715157 426.181832429632L765.9126115197424 426.181832429632Q758.8623684950893 434.0829668538121 752.359127084418 438.03353406590213Q745.8254966951921 441.9841012779922 738.9879765204208 441.9841012779922ZM744.7618824457833 429.37267517785847L744.7618824457833 429.37267517785847Q749.6848969716185 429.37267517785847 753.9393539692541 427.1542797433772Q758.224199945444 424.9054953303413 762.2963230717522 420.1952036543878L762.2963230717522 420.1952036543878L762.2963230717522 397.76813748113807L738.3498079707755 404.18021195614574Q733.2140705950586 405.4565490554364 730.9652861820226 408.2219461038994Q728.7468907475412 411.017732130917 728.7468907475412 415.27218912855244L728.7468907475412 415.27218912855244Q728.7468907475412 420.6206493541513 733.5483493591584 424.99666226600493Q738.3498079707755 429.37267517785847 744.7618824457833 429.37267517785847ZM840.274442042699 441.9841012779922L840.274442042699 441.9841012779922Q832.3733076185189 441.9841012779922 824.4721731943388 440.1607625647198Q816.5406497916041 438.3678128300021 811.0098556946781 435.35930395310265L811.0098556946781 435.35930395310265L809.9158524667147 412.50679208008944L820.4000500680305 412.50679208008944L824.6848960442206 427.88361522868615Q832.1605847686372 433.01935260440325 841.7635019918715 433.01935260440325L841.7635019918715 433.01935260440325Q849.0264678664063 433.01935260440325 853.524036692478 429.4942310920767Q858.0216055185498 425.96910957975024 858.0216055185498 419.98248080450605L858.0216055185498 419.98248080450605Q858.0216055185498 414.42129772902535 853.9494823922415 410.25800766705356Q849.8773592659333 406.09471760508177 838.1472135438813 401.1717030792464L838.1472135438813 401.1717030792464Q822.9527242666119 394.546905754357 816.753372641486 388.4691100434492Q810.5844099949146 382.39131433254136 810.5844099949146 372.7580081307526L810.5844099949146 372.7580081307526Q810.5844099949146 365.06959655645426 815.1731457566499 359.2045236954283Q819.7618815183854 353.30906185584774 827.8757387924471 349.9966631934029Q835.9895960665091 346.6842645309582 846.6865165177068 346.6842645309582L846.6865165177068 346.6842645309582Q852.6731452929508 346.6842645309582 858.8724969180768 347.74787878036705Q865.0718485432027 348.84188200833046 869.1135826909564 350.54366480738463L869.1135826909564 350.54366480738463L871.4535340396559 372.7580081307526L861.4251711166581 372.7580081307526L856.289433740941 358.232076381683Q854.1622052421234 356.9557392823923 851.1840853437785 356.19601481852885Q848.1755764668791 355.46667933322 844.7720108687707 355.46667933322L844.7720108687707 355.46667933322Q837.2659331657998 355.46667933322 832.7987533182824 358.99180084554644Q828.3011844922106 362.516922357873 828.3011844922106 368.047716454799L828.3011844922106 368.047716454799Q828.3011844922106 374.4597909298068 833.2241990180461 378.41035814189684Q838.1472135438813 382.39131433254136 850.5155278155786 388.1348312793492L850.5155278155786 388.1348312793492Q864.6160138648846 394.546905754357 870.1771969403652 400.7462573794829Q875.738380015846 406.94560900460885 875.738380015846 415.69763482831604L875.738380015846 415.69763482831604Q875.738380015846 427.2454466790408 865.710017092848 434.6299684677938Q855.6512651912957 441.9841012779922 840.274442042699 441.9841012779922ZM934.7233873902059 440.282318478938L890.9024803145609 440.282318478938L890.4770346147974 432.59390690463965L903.7266292645762 429.37267517785847Q904.1520749643397 427.03272382915907 904.3647978142216 422.23126521754193Q904.5775206641034 417.4298066059248 904.6990765783215 409.28556035330837Q904.790243513985 401.1717030792464 904.790243513985 389.44155735719437L904.790243513985 389.44155735719437L904.790243513985 362.72964520775474Q904.790243513985 355.46667933322 904.6990765783215 347.1097102307218Q904.5775206641034 338.7831301067781 904.4863537284397 331.0035515968161Q904.3647978142216 323.19358410829966 904.273630878558 317.41967818293733Q904.1520749643397 311.6457722575749 903.9393521144581 309.7312666086389L903.9393521144581 309.7312666086389L888.1370832660979 307.6040381098212L887.7116375663342 300.76651793504993L917.8271153138822 291.9841031327882L921.8992384401905 294.9926120096876Q921.6865155903087 301.617409334577 921.473792740427 308.24220665946655Q921.2610698905452 314.86700398435596 921.1395139763271 322.4338596444362Q921.0483470406633 330.03110428307093 920.9267911264452 339.6340215063052Q920.8356241907817 349.26732770809406 920.8356241907817 361.87875380822766L920.8356241907817 361.87875380822766L921.473792740427 362.0914766581094Q928.9494814648434 353.947230405493 936.0908914251601 350.3309419575029Q943.2626903640313 346.6842645309582 951.8019933378567 346.6842645309582L951.8019933378567 346.6842645309582Q959.7031277620368 346.6842645309582 966.6622038510262 350.7563876572664Q973.5908909614612 354.79812180502006 977.9972928518692 363.0335349933001Q982.3733057637229 371.2689481815802 982.3733057637229 384.09309713159564L982.3733057637229 384.09309713159564L982.3733057637229 407.1583318544906Q982.3733057637229 414.84674342878895 982.7987514634864 420.95492811825125Q983.2241971632501 427.03272382915907 983.6496428630136 429.37267517785847L983.6496428630136 429.37267517785847L996.8992375127924 432.59390690463965L996.4737918130289 440.282318478938L953.5037761369109 440.282318478938L952.8656075872656 432.59390690463965L965.2643108375174 429.37267517785847Q965.4770336873993 427.6708923788044 965.6897565372811 425.11821818022304Q965.9024793871628 422.5351550030873 966.0240353013809 418.58458779099726Q966.1152022370446 414.6340205789072 966.1152022370446 408.647391803663L966.1152022370446 408.647391803663L966.1152022370446 385.58215708076796Q966.1152022370446 376.4046855572973 963.0155264244817 370.7219465675985Q959.9158506119187 365.06959655645426 955.0232250646378 362.3953664436548Q950.1002105388026 359.7211363308554 944.539027463322 359.7211363308554L944.539027463322 359.7211363308554Q937.7015072885507 359.7211363308554 931.5021556634248 363.24625784318187Q925.3028040382989 366.77137935550843 921.0483470406633 372.97073098063436L921.0483470406633 372.97073098063436L921.0483470406633 405.0311033556728Q921.0483470406633 414.84674342878895 921.3522368262089 421.2588179037966Q921.6865155903087 427.6708923788044 922.1119612900724 429.37267517785847L922.1119612900724 429.37267517785847L935.1488330899693 432.59390690463965L934.7233873902059 440.282318478938ZM1053.7266274097801 440.282318478938L1007.5657689854357 440.282318478938L1007.140323285672 432.3811840547579L1021.4535321848599 429.37267517785847Q1021.6662550347415 428.5217837783315 1021.7878109489599 426.3945552795137Q1021.8789778846234 424.26732678069607 1022.1220897130598 419.55703510474245Q1022.3348125629415 414.84674342878895 1022.3348125629415 406.52016330484525L1022.3348125629415 406.52016330484525L1022.3348125629415 392.4196772555392Q1022.3348125629415 383.66765143183204 1021.8789778846234 376.4046855572973Q1021.4535321848599 369.1417196827624 1020.8153636352146 365.06959655645426L1020.8153636352146 365.06959655645426L1006.5021547360267 362.0914766581094L1006.5021547360267 355.0412336334564L1036.8607443120109 347.1097102307218L1040.0515870602376 350.11821910762114Q1039.4134185105922 356.74301643251056 1039.0791397464923 363.15509090751834Q1038.775249960947 369.567165382526 1038.775249960947 378.10646835635146L1038.775249960947 378.10646835635146L1038.775249960947 405.0311033556728Q1038.775249960947 414.84674342878895 1039.0791397464923 421.2588179037966Q1039.4134185105922 427.6708923788044 1039.838864210356 429.37267517785847L1039.838864210356 429.37267517785847L1054.1520731095438 432.3811840547579L1053.7266274097801 440.282318478938ZM1030.6613926868854 322.9808612584179L1030.6613926868854 322.9808612584179Q1025.3129324612864 322.9808612584179 1021.3623652491962 319.33418383187325Q1017.4117980371062 315.71789538388305 1017.4117980371062 310.3694351582842L1017.4117980371062 310.3694351582842Q1017.4117980371062 305.02097493268536 1021.3623652491962 301.4046864846953Q1025.3129324612864 297.7580090581506 1030.6613926868854 297.7580090581506L1030.6613926868854 297.7580090581506Q1036.222575762366 297.7580090581506 1039.838864210356 301.4046864846953Q1043.4855416369005 305.02097493268536 1043.4855416369005 310.3694351582842L1043.4855416369005 310.3694351582842Q1043.4855416369005 315.71789538388305 1039.838864210356 319.33418383187325Q1036.222575762366 322.9808612584179 1030.6613926868854 322.9808612584179ZM1111.8607433846132 441.9841012779922L1111.8607433846132 441.9841012779922Q1099.8874858341246 441.9841012779922 1089.8287339325725 436.5444741167297Q1079.8003710095745 431.1048469554672 1073.8137422343302 420.7422052683695Q1067.8271134590864 410.37956358127167 1067.8271134590864 396.0663546820839L1067.8271134590864 396.0663546820839Q1067.8271134590864 382.14820250410514 1074.1480209984302 370.9346694174802Q1080.4385395592199 359.7211363308554 1091.4393497959632 353.2178949201841Q1102.440160032706 346.6842645309582 1116.1152003822485 346.6842645309582L1116.1152003822485 346.6842645309582Q1125.5357837341553 346.6842645309582 1131.9478582091633 349.0546048582122Q1138.3599326841709 351.3945562069117 1141.6419423680613 355.25395648333813Q1144.954341030506 359.0829677812101 1144.954341030506 363.3678137574001L1144.954341030506 363.3678137574001Q1144.954341030506 366.77137935550843 1142.8271125316883 369.0201637685443Q1140.6998840328706 371.2689481815802 1136.840483756444 371.2689481815802L1136.840483756444 371.2689481815802Q1133.4369181583356 371.2689481815802 1130.8538549811997 369.9926110822895Q1128.3011807826188 368.7162739829989 1124.6848923346283 364.8568737065725L1124.6848923346283 364.8568737065725L1113.7752490335488 353.947230405493L1121.4636606078475 356.10484788286533Q1112.9243576340218 354.15995325537483 1105.023223209842 357.6850747677013Q1097.091699807107 361.21019628002784 1091.9863514099447 369.8710551680714Q1086.8506140342274 378.53191405611494 1086.8506140342274 392.2069544056575L1086.8506140342274 392.2069544056575Q1086.8506140342274 409.28556035330837 1095.511472922271 418.4934208553336Q1104.172331810315 427.6708923788044 1117.1788146316571 427.6708923788044L1117.1788146316571 427.6708923788044Q1125.3230608842737 427.6708923788044 1131.1881337452996 424.69277248045955Q1137.0532066063256 421.6842636035602 1142.4016668319246 415.0594662786707L1142.4016668319246 415.0594662786707L1148.1755727572872 419.98248080450605Q1142.188943982043 431.1048469554672 1133.0114724585724 436.5444741167297Q1123.8036119565468 441.9841012779922 1111.8607433846132 441.9841012779922ZM1191.7533680044958 441.9841012779922L1191.7533680044958 441.9841012779922Q1183.2140650306706 441.9841012779922 1176.589267705781 438.58053567988384Q1169.9644703808913 435.1465811032209 1166.226626018683 429.79812087762207Q1162.4887816564747 424.4800496305778 1162.4887816564747 418.70614370521537L1162.4887816564747 418.70614370521537Q1162.4887816564747 411.4431778306806 1167.1990733324283 406.7328861547271Q1171.8789760298273 402.0225944787735 1182.5758964810252 398.61902888066516L1182.5758964810252 398.61902888066516L1215.0617145558272 387.7093855795857L1215.0617145558272 376.83013125706077Q1215.0617145558272 371.48167103146193 1211.8404828290463 367.1056581196084Q1208.6496400808196 362.72964520775474 1203.3011798552207 360.1465820306189Q1197.9527196296217 357.59390783203764 1191.327922304732 357.59390783203764L1191.327922304732 357.59390783203764Q1185.9794620791336 357.59390783203764 1184.0649564301975 359.8426922450735Q1182.1504507812615 362.0914766581094 1181.7250050814982 368.7162739829989L1181.7250050814982 368.7162739829989L1181.2995593817345 377.68102265658786Q1173.6111478074363 379.382805455642 1168.2626875818373 377.13402104260615Q1162.9142273562384 374.8852366295703 1162.9142273562384 369.77988823240776L1162.9142273562384 369.77988823240776Q1162.9142273562384 366.1332108058631 1166.0139031688013 362.516922357873Q1169.1135789813643 358.87024493132833 1174.2493163570812 355.5578462688836Q1179.3850537327985 352.2454476064388 1185.3412935294882 349.9054962577394Q1191.327922304732 347.5351559304853 1197.1018282300947 346.6842645309582L1197.1018282300947 346.6842645309582Q1212.904097078455 346.6842645309582 1222.415847366026 355.0412336334564Q1231.9275976535964 363.3678137574001 1232.140320503478 376.83013125706077L1232.140320503478 376.83013125706077L1231.7148748037143 412.7195149299712Q1231.7148748037143 416.79163805627945 1232.0491535678143 420.6206493541513Q1232.3530433533597 424.4800496305778 1232.9912119030055 426.3945552795137L1232.9912119030055 426.3945552795137L1246.6662522525476 428.947229478095L1246.6662522525476 435.5720268029845L1236.2124436297863 439.4314270794109Q1233.203934752887 440.49504132881975 1230.6512605543057 441.2547657926832Q1228.0985863557244 441.9841012779922 1226.3664145781158 441.9841012779922L1226.3664145781158 441.9841012779922Q1219.7416172532262 441.9841012779922 1217.8271116042902 434.50841255357557L1217.8271116042902 434.50841255357557L1215.4871602555909 426.181832429632L1218.6780030038171 426.181832429632Q1211.6277599791642 434.0829668538121 1205.124518568493 438.03353406590213Q1198.590888179267 441.9841012779922 1191.7533680044958 441.9841012779922ZM1197.527273929858 429.37267517785847L1197.527273929858 429.37267517785847Q1202.4502884556937 429.37267517785847 1206.7351344318836 427.1542797433772Q1210.989591429519 424.9054953303413 1215.0617145558272 420.1952036543878L1215.0617145558272 420.1952036543878L1215.0617145558272 397.76813748113807L1191.1151994548504 404.18021195614574Q1185.9794620791336 405.4565490554364 1183.7610666446521 408.2219461038994Q1181.5122822316162 411.017732130917 1181.5122822316162 415.27218912855244L1181.5122822316162 415.27218912855244Q1181.5122822316162 420.6206493541513 1186.3137408432335 424.99666226600493Q1191.1151994548504 429.37267517785847 1197.527273929858 429.37267517785847Z " fill="#ffe67c" transform="matrix(0.7018719097473147,0,0,0.7018719097473147,0,42.42418523657177)"/></g></svg>